<svg width="589" height="520" viewBox="0 0 589 520" fill="none" xmlns="http://www.w3.org/2000/svg">
<path d="M218.688 355.911H135C140.851 324.278 139.505 286.08 135 245H218.688C214.303 286.08 212.992 324.278 218.688 355.911Z" fill="#6C63FF"/>
<path d="M177.348 317.597C188.485 317.597 197.514 308.569 197.514 297.431C197.514 286.294 188.485 277.266 177.348 277.266C166.211 277.266 157.182 286.294 157.182 297.431C157.182 308.569 166.211 317.597 177.348 317.597Z" fill="white"/>
<path d="M497.855 455.599L429.53 407.274C452.573 384.826 473.532 352.863 493.576 316.723L561.9 365.048C534.599 396.055 511.471 426.484 497.855 455.599Z" fill="#6C63FF"/>
<path d="M497.873 404.148C509.01 404.148 518.039 395.119 518.039 383.982C518.039 372.845 509.01 363.816 497.873 363.816C486.736 363.816 477.708 372.845 477.708 383.982C477.708 395.119 486.736 404.148 497.873 404.148Z" fill="white"/>
<path d="M168.262 235.078H160.762C160.499 235.078 160.246 235.183 160.059 235.369C159.873 235.556 159.768 235.809 159.768 236.072V239.364C159.768 239.495 159.794 239.624 159.844 239.745C159.894 239.866 159.967 239.975 160.059 240.068C160.152 240.16 160.261 240.233 160.382 240.283C160.503 240.333 160.632 240.359 160.762 240.359H162.005V245.291H167.02V240.359H168.262C168.526 240.359 168.779 240.254 168.965 240.068C169.152 239.881 169.257 239.628 169.257 239.364V236.072C169.257 235.809 169.152 235.556 168.965 235.369C168.779 235.183 168.526 235.078 168.262 235.078V235.078Z" fill="#E6E6E6"/>
<path opacity="0.2" d="M166.699 236.152C166.699 236.721 166.473 237.267 166.07 237.669C165.668 238.072 165.122 238.298 164.553 238.298C163.985 238.298 163.439 238.072 163.037 237.669C162.634 237.267 162.408 236.721 162.408 236.152" fill="black"/>
<path opacity="0.2" d="M402.676 341.75C402.676 342.815 402.252 343.836 401.499 344.59C400.746 345.343 399.725 345.766 398.66 345.766C397.595 345.766 396.573 345.343 395.82 344.59C395.067 343.836 394.644 342.815 394.644 341.75" fill="black"/>
<path d="M365.546 455.521H281.858C287.709 423.887 286.363 385.689 281.858 344.609H365.546C361.161 385.689 359.851 423.888 365.546 455.521Z" fill="#6C63FF"/>
<path d="M324.206 417.206C335.343 417.206 344.372 408.178 344.372 397.041C344.372 385.903 335.343 376.875 324.206 376.875C313.069 376.875 304.041 385.903 304.041 397.041C304.041 408.178 313.069 417.206 324.206 417.206Z" fill="white"/>
<path d="M23.2432 106.468L42.0302 104.76L53.9861 75.7255L32.6371 63.7695L23.2432 106.468Z" fill="#FFB8B8"/>
<path d="M195.66 186.174C196.285 184.616 196.53 182.932 196.377 181.26C196.223 179.589 195.674 177.978 194.775 176.56C193.876 175.143 192.654 173.959 191.208 173.106C189.762 172.254 188.134 171.757 186.458 171.657L157.289 169.918L152.994 184.2L183.022 192.447C185.532 193.136 188.207 192.878 190.538 191.721C192.868 190.564 194.692 188.589 195.66 186.174V186.174Z" fill="#FFB8B8"/>
<path d="M164.339 192.686L164.018 165.886L99.2247 155.548L49.3094 98.3002C46.7124 95.3216 43.1238 93.3853 39.2085 92.8499C35.2931 92.3145 31.3165 93.2163 28.0151 95.3883C26.0163 96.7033 24.3306 98.4414 23.0774 100.48C21.8241 102.518 21.0338 104.806 20.7623 107.183C20.4908 109.561 20.7447 111.969 21.5061 114.237C22.2676 116.505 23.5179 118.578 25.1688 120.31L66.3484 170.988L164.339 192.686Z" fill="#575A89"/>
<path d="M8.72559 494.168H25.8049L68.1681 302.634L112.055 361.803L137.674 489.898H153.9L150.484 352.409L93.2682 205.527H36.9065C21.5042 233.402 9.42184 262.136 23.243 291.778L8.72559 494.168Z" fill="#2F2E41"/>
<path d="M127.204 505.801C127.015 506.405 126.958 507.043 127.034 507.671C127.111 508.299 127.321 508.904 127.65 509.445C127.979 509.986 128.419 510.451 128.941 510.809C129.464 511.166 130.057 511.408 130.68 511.519L172.473 518.936C174.125 519.238 175.83 518.925 177.267 518.057C178.704 517.189 179.773 515.825 180.274 514.223V514.223C180.761 512.691 180.693 511.037 180.082 509.551C179.471 508.065 178.355 506.842 176.932 506.097C167.742 501.378 159.834 494.503 153.883 486.059C149.29 490.336 144.156 489.934 138.704 486.781L132.922 487.504L127.204 505.801Z" fill="#2F2E41"/>
<path d="M0.817655 505.801C0.628813 506.405 0.570859 507.043 0.647672 507.671C0.724485 508.299 0.934288 508.904 1.26312 509.445C1.59195 509.986 2.03227 510.451 2.55475 510.809C3.07722 511.166 3.66987 511.408 4.29324 511.519L46.0865 518.936C47.738 519.238 49.4429 518.925 50.8798 518.057C52.3168 517.189 53.3865 515.825 53.8873 514.223V514.223C54.3744 512.691 54.3064 511.037 53.6951 509.551C53.0839 508.065 51.9686 506.842 50.5451 506.097C41.3556 501.378 33.447 494.503 27.4967 486.059C22.9034 490.336 17.7694 489.934 12.3177 486.781L6.53528 487.504L0.817655 505.801Z" fill="#2F2E41"/>
<path d="M54.4125 86.3963C67.6182 86.3963 78.3235 75.691 78.3235 62.4853C78.3235 49.2796 67.6182 38.5742 54.4125 38.5742C41.2068 38.5742 30.5015 49.2796 30.5015 62.4853C30.5015 75.691 41.2068 86.3963 54.4125 86.3963Z" fill="#FFB8B8"/>
<path d="M33.0638 211.932L95.4032 210.224L77.0955 152.604C88.4729 134.365 77.0225 116.144 60.8176 97.9273L48.0081 89.3876L27.5129 87.6797C18.6393 97.1748 13.7839 109.735 13.9638 122.73C14.3696 150.557 19.2967 180.849 33.0638 211.932Z" fill="#575A89"/>
<path d="M176.291 250.716C177.478 249.53 178.367 248.078 178.883 246.481C179.399 244.883 179.528 243.186 179.259 241.529C178.991 239.873 178.332 238.303 177.338 236.951C176.344 235.598 175.043 234.501 173.542 233.75L147.408 220.676L137.841 232.117L162.205 251.512C164.241 253.132 166.802 253.947 169.4 253.8C171.998 253.654 174.451 252.556 176.291 250.716V250.716Z" fill="#FFB8B8"/>
<path d="M144.933 244.381L155.18 219.616L99.6787 184.622L76.3085 112.354C75.0925 108.594 72.555 105.402 69.166 103.37C65.777 101.337 61.7662 100.602 57.8766 101.3V101.3C55.5216 101.723 53.2881 102.657 51.3341 104.038C49.3801 105.419 47.7532 107.212 46.5685 109.291C45.3837 111.37 44.6699 113.683 44.4776 116.068C44.2854 118.453 44.6193 120.851 45.4557 123.093L63.3791 185.884L144.933 244.381Z" fill="#575A89"/>
<path d="M15.1304 53.0937C15.1304 62.3976 21.1726 76.8061 28.7938 82.9825C33.9216 87.1382 40.6984 86.9632 43.3112 81.2746C45.9915 75.439 55.2307 61.7223 71.4921 53.0937C93.1697 41.5912 63.8045 21.9122 43.3112 24.9128C27.9116 27.1677 15.1304 37.5298 15.1304 53.0937Z" fill="#2F2E41"/>
<path d="M29.6477 40.2836C39.0803 40.2836 46.727 32.637 46.727 23.2043C46.727 13.7717 39.0803 6.125 29.6477 6.125C20.215 6.125 12.5684 13.7717 12.5684 23.2043C12.5684 32.637 20.215 40.2836 29.6477 40.2836Z" fill="#2F2E41"/>
<path d="M49.2891 17.2278C49.2874 12.9219 47.6584 8.7758 44.7286 5.62042C41.7988 2.46504 37.7846 0.533555 33.4907 0.213104C33.9151 0.181524 34.3393 0.148438 34.7717 0.148438C39.3014 0.148437 43.6455 1.94786 46.8485 5.15085C50.0515 8.35384 51.851 12.698 51.851 17.2278C51.851 21.7575 50.0515 26.1016 46.8485 29.3046C43.6455 32.5076 39.3014 34.3071 34.7717 34.3071C34.3393 34.3071 33.9151 34.274 33.4907 34.2424C37.7846 33.9219 41.7987 31.9904 44.7285 28.8351C47.6584 25.6797 49.2874 21.5336 49.2891 17.2278Z" fill="#2F2E41"/>
<path d="M54.8399 71.0249C56.9622 71.0249 58.6827 68.7309 58.6827 65.9011C58.6827 63.0713 56.9622 60.7773 54.8399 60.7773C52.7176 60.7773 50.9971 63.0713 50.9971 65.9011C50.9971 68.7309 52.7176 71.0249 54.8399 71.0249Z" fill="#FFB8B8"/>
<path d="M538.751 462.847H272.879L216.578 196.696H168.529V184.754H226.258L282.559 450.904H538.751V462.847Z" fill="#3F3D56"/>
<path d="M311.841 511.468C325.975 511.468 337.432 500.01 337.432 485.877C337.432 471.743 325.975 460.285 311.841 460.285C297.707 460.285 286.25 471.743 286.25 485.877C286.25 500.01 297.707 511.468 311.841 511.468Z" fill="#3F3D56"/>
<path d="M502.923 511.468C517.057 511.468 528.515 500.01 528.515 485.877C528.515 471.743 517.057 460.285 502.923 460.285C488.79 460.285 477.332 471.743 477.332 485.877C477.332 500.01 488.79 511.468 502.923 511.468Z" fill="#3F3D56"/>
<path d="M533.904 457.22H275.225L229.584 231.668H576.735C578.507 231.668 580.257 232.052 581.866 232.793C583.475 233.534 584.904 234.615 586.056 235.961C587.207 237.308 588.053 238.887 588.536 240.592C589.018 242.296 589.126 244.085 588.851 245.835L546.018 446.86C545.576 449.752 544.11 452.389 541.886 454.291C539.662 456.193 536.83 457.232 533.904 457.22V457.22ZM278.034 453.808H533.904C536.015 453.817 538.06 453.066 539.665 451.694C541.269 450.321 542.327 448.418 542.646 446.33L585.479 245.305C585.678 244.042 585.6 242.751 585.252 241.521C584.904 240.29 584.293 239.15 583.463 238.178C582.632 237.207 581.6 236.427 580.439 235.892C579.277 235.357 578.014 235.08 576.735 235.08H233.726L278.034 453.808Z" fill="#3F3D56"/>
<path d="M325.513 456.5L295.623 233.654L298.989 233.098L328.879 455.944L325.513 456.5Z" fill="#3F3D56"/>
<path d="M491.712 454.788L488.343 454.242L517.36 233.102L520.729 233.648L491.712 454.788Z" fill="#3F3D56"/>
<path d="M412.527 233.375H409.115V456.221H412.527V233.375Z" fill="#3F3D56"/>
<path d="M247.014 293.088L247.005 296.5L577.3 297.3L577.308 293.888L247.014 293.088Z" fill="#3F3D56"/>
<path d="M554 398.493L263.829 400.477L263.852 403.889L554.024 401.905L554 398.493Z" fill="#3F3D56"/>
<path d="M173.647 199.254C184.012 199.254 192.414 194.671 192.414 189.018C192.414 183.364 184.012 178.781 173.647 178.781C163.283 178.781 154.88 183.364 154.88 189.018C154.88 194.671 163.283 199.254 173.647 199.254Z" fill="#3F3D56"/>
</svg>
